<svg id="visual" viewBox="0 0 1280 720" width="1280" height="720" xmlns="http://www.w3.org/2000/svg" xmlns:xlink="http://www.w3.org/1999/xlink" version="1.1"><rect x="0" y="0" width="1280" height="720" fill="#FFFFFF"></rect><defs><linearGradient id="grad1_0" x1="43.8%" y1="100%" x2="100%" y2="0%"><stop offset="14.444444444444446%" stop-color="#ffffff" stop-opacity="1"></stop><stop offset="85.55555555555554%" stop-color="#ffffff" stop-opacity="1"></stop></linearGradient></defs><defs><linearGradient id="grad2_0" x1="0%" y1="100%" x2="56.3%" y2="0%"><stop offset="14.444444444444446%" stop-color="#ffffff" stop-opacity="1"></stop><stop offset="85.55555555555554%" stop-color="#ffffff" stop-opacity="1"></stop></linearGradient></defs><g transform="translate(1280, 720)"><path d="M-396 0C-384.4 -68.1 -372.8 -136.3 -341.2 -197C-309.7 -257.7 -258.2 -311 -198 -342.9C-137.8 -374.9 -68.9 -385.4 0 -396L0 0Z" fill="#FBAE3C"></path></g><g transform="translate(0, 0)"><path d="M396 0C386.3 70.4 376.6 140.8 342.9 198C309.3 255.2 251.7 299.2 190.5 330C129.3 360.8 64.7 378.4 0 396L0 0Z" fill="#FBAE3C"></path></g></svg>